PathFileType	4	(X/Y/Z)	Run_200 01
DataRate	CameraRate	NumFrames	NumMarkers	Units	OrigDataRate	OrigDataStartFrame	OrigNumFrames
120	120	6	42	mm	120	477	128
Frame#	Time	LASI			RASI			LPSI			RPSI			RTH1			RTH2			RTH3			LTH1			LTH2			LTH3			RTB1			RTB2			RTB3			LTB1			LTB2			LTB3			RCAL			RTOE			RMT5			LCAL			LTOE			LMT5			LACR			RACR			CLAV			C7			RUA1			RUA2			RUA3			RLEL			LUA1			LUA2			LUA3			LLEL			RFAsuperior			RFAradius			RFAulna			LFAsuperior			LFAradius			LFAulna			LMEL			RMEL		
		X1	Y1	Z1	X2	Y2	Z2	X3	Y3	Z3	X4	Y4	Z4	X5	Y5	Z5	X6	Y6	Z6	X7	Y7	Z7	X8	Y8	Z8	X9	Y9	Z9	X10	Y10	Z10	X11	Y11	Z11	X12	Y12	Z12	X13	Y13	Z13	X14	Y14	Z14	X15	Y15	Z15	X16	Y16	Z16	X17	Y17	Z17	X18	Y18	Z18	X19	Y19	Z19	X20	Y20	Z20	X21	Y21	Z21	X22	Y22	Z22	X23	Y23	Z23	X24	Y24	Z24	X25	Y25	Z25	X26	Y26	Z26	X27	Y27	Z27	X28	Y28	Z28	X29	Y29	Z29	X30	Y30	Z30	X31	Y31	Z31	X32	Y32	Z32	X33	Y33	Z33	X34	Y34	Z34	X35	Y35	Z35	X36	Y36	Z36	X37	Y37	Z37	X38	Y38	Z38	X39	Y39	Z39	X40	Y40	Z40	X41	Y41	Z41	X42	Y42	Z42	

477	  3.975000	1057.861718	1016.113771	-419.091352	1042.376729	1030.742052	-188.070358	887.242605	1052.514239	-371.925705	878.825188	1052.507923	-272.688192	1017.689383	869.398805	-134.542575	1124.292202	743.450360	-163.262979	1085.892367	639.704339	-180.515968	994.145530	837.840830	-476.688846	1054.603475	734.513384	-444.484023	972.796478	615.167717	-437.880128	1166.961594	415.964155	-247.587927	1114.190015	362.001818	-184.532957	1130.110861	238.414778	-251.994802	900.682012	398.237821	-374.458684	794.781637	386.512210	-422.841292	724.190461	314.122069	-359.090047	992.657223	108.427683	-274.824008	1200.877154	 80.458398	-301.912737	1185.997964	 45.717917	-196.937706	573.400876	363.886748	-347.818067	622.437373	165.729222	-309.723654	583.176365	159.835379	-411.420184	1032.929518	1503.374695	-476.935975	1006.402292	1483.077855	-117.582287	1086.875728	1445.055748	-267.464844	980.423130	1529.820522	-308.122176	959.033430	1416.181522	-69.539902	938.078130	1328.406535	-89.187647	856.546420	1353.940471	-89.008217	792.012581	1259.967297	-77.051320	999.795764	1439.519459	-534.544153	929.327455	1399.725782	-522.072547	977.232089	1340.179953	-566.445940	893.471248	1254.959264	-607.708253	844.115088	1185.162210	-52.771990	907.242923	1007.173809	-67.472672	845.763178	993.364963	-87.427021	971.198959	1235.636002	-582.436678	1107.306898	1202.428581	-449.263553	1094.088480	1139.603791	-466.870621	848.477561	1257.416073	-547.585134	790.337476	1263.877398	-143.217511	
478	  3.983333	1057.934844	1009.112021	-419.298142	1042.369620	1024.120570	-187.551804	887.000099	1043.238896	-371.762947	878.521740	1043.628901	-271.806510	1019.033325	861.346473	-134.506167	1123.402239	735.281891	-165.096979	1085.738924	631.612746	-181.612055	997.314561	829.822042	-476.423197	1059.860633	728.255891	-445.459267	981.234037	607.336088	-437.627914	1160.803117	407.355642	-250.341244	1105.920385	355.947671	-187.113649	1115.620288	231.477130	-253.675852	909.870947	393.904305	-375.421121	803.654696	386.051191	-423.575951	730.694620	315.944893	-360.307378	972.985816	101.996387	-274.709670	1182.583731	 80.178110	-301.837084	1168.903142	 45.859535	-196.998168	579.484444	369.475002	-349.819188	627.522267	171.034009	-311.980031	589.183177	165.551097	-413.840336	1031.104907	1496.446574	-476.699629	1006.794300	1474.921049	-116.405115	1086.721223	1437.771210	-267.309440	979.622382	1522.966064	-307.190383	960.747394	1406.484940	-68.009460	940.871314	1318.274318	-87.784754	858.805803	1342.495614	-85.378829	796.206891	1247.729257	-72.916185	996.973357	1432.721496	-533.941088	926.084634	1394.087479	-520.509501	972.484849	1333.568127	-564.956746	886.994032	1250.692932	-606.030419	849.963328	1173.672553	-50.088446	916.324002	997.364840	-67.071030	853.994261	982.882677	-85.471780	964.359659	1228.421844	-582.380685	1101.718582	1187.481820	-452.213967	1085.645224	1125.648953	-471.995881	843.690094	1253.054797	-545.229705	792.894736	1251.941985	-139.106884	
479	  3.991667	1057.677289	1001.779564	-419.560047	1042.314596	1016.722497	-187.149628	886.542851	1033.691762	-371.314380	877.989443	1034.445087	-270.554247	1019.233807	852.420187	-134.192174	1122.086496	726.853315	-166.386491	1085.037263	623.206702	-182.725116	1000.203451	821.504427	-476.364332	1064.894844	721.844158	-446.680308	989.558874	599.433547	-437.113232	1153.901743	398.813047	-252.875223	1097.014039	349.962475	-189.496196	1101.547625	225.005551	-255.333718	919.661644	389.609155	-376.593684	813.346363	385.271229	-424.455549	738.346736	317.362308	-361.689664	954.202808	 96.460259	-275.201731	1164.988442	 79.490764	-302.127647	1151.978083	 45.771952	-197.386955	586.970814	374.425677	-351.776689	633.845595	175.616032	-314.260794	596.402435	170.679924	-416.378885	1028.993613	1489.320942	-476.662360	1007.188226	1466.633564	-115.187934	1086.644778	1430.344921	-267.378402	978.689905	1515.923030	-306.248961	962.498287	1396.285514	-66.586968	943.886703	1307.667480	-86.609362	861.273388	1330.415655	-81.787916	800.882795	1234.902701	-68.823359	993.804628	1425.352041	-533.542740	922.494594	1387.881500	-518.970318	967.444979	1326.326661	-563.354968	880.365954	1246.046916	-604.136088	856.305608	1161.685270	-47.467113	926.039023	987.310597	-66.880676	862.362090	972.008777	-83.640624	957.279784	1220.645114	-582.237792	1095.583893	1171.789639	-455.701536	1076.658423	1110.986419	-477.953516	838.715053	1248.408379	-542.587531	795.932738	1239.332521	-134.959822	
480	  4.000000	1057.038509	994.284122	-419.951755	1042.143553	1008.680303	-186.872191	885.707350	1024.375493	-370.509048	877.087808	1025.469364	-269.283613	1018.191739	843.418196	-133.962287	1120.278957	718.686390	-167.003757	1083.457661	615.017737	-183.899411	1002.908761	813.047697	-476.390848	1069.826908	715.498056	-448.006180	997.960194	591.622699	-436.559947	1146.574963	390.637266	-255.267367	1088.121359	343.794928	-191.947100	1088.038265	219.023842	-257.669862	930.117818	385.556195	-377.865222	823.828959	384.248280	-425.461183	747.100394	318.434938	-363.139645	936.413614	 92.220701	-276.591756	1148.068209	 78.200835	-302.983003	1135.204527	 45.809812	-197.822345	595.697734	378.671616	-353.592141	641.419164	179.451539	-316.563182	604.933871	175.201515	-419.076091	1026.547207	1482.232253	-476.761876	1007.591046	1458.390891	-113.947541	1086.625162	1422.981061	-267.648805	977.685369	1508.865922	-305.296374	964.373362	1385.681800	-65.397902	947.156203	1296.827497	-85.671044	864.060404	1317.842269	-78.206045	806.134416	1221.631202	-64.819099	990.177955	1417.695041	-533.280547	918.521676	1381.255588	-517.352128	962.154803	1318.779246	-561.736180	873.646387	1241.147011	-601.977451	863.288303	1149.352888	-44.980244	936.425977	977.171921	-66.943154	871.444997	960.671203	-82.077999	949.943894	1212.397037	-582.077630	1088.872174	1155.438949	-459.636035	1067.064494	1095.731163	-484.037397	833.429741	1243.681318	-539.630399	799.414857	1226.221959	-130.806048	
481	  4.008333	1056.036056	986.797176	-420.464466	1041.730058	1000.422070	-186.694185	884.482531	1015.831925	-369.445660	875.801688	1017.367263	-268.393949	1016.048074	835.253058	-134.171963	1117.846587	711.205251	-167.087523	1080.851812	607.497731	-185.148756	1005.433251	804.819374	-476.343101	1074.807005	709.490842	-449.319826	1006.623401	584.132880	-436.219978	1139.070065	383.050119	-257.628626	1079.456966	337.452720	-194.682494	1074.793095	213.534268	-260.940122	941.281544	382.055162	-379.208546	835.049789	383.104662	-426.603237	756.895484	319.210528	-364.603074	919.275227	 89.363077	-278.690542	1131.508382	 76.687886	-304.225023	1118.448022	 46.202239	-198.131328	605.473340	382.141965	-355.209038	650.304098	182.534710	-318.937861	614.815088	179.068623	-421.935846	1023.756151	1475.390350	-476.912245	1008.012510	1450.339202	-112.735344	1086.615517	1415.874930	-268.062812	976.683434	1501.977294	-304.345918	966.514533	1374.859881	-64.597729	950.770192	1286.048096	-84.895007	867.292560	1304.988004	-74.642744	812.033252	1208.078865	-60.937010	986.056619	1410.146211	-533.017301	914.195968	1374.400458	-515.519030	956.708281	1311.357512	-560.156008	866.895099	1236.120242	-599.489613	871.081764	1136.884275	-42.726392	947.533271	967.151913	-67.304476	881.792945	948.997313	-80.864703	942.359340	1203.794834	-581.889264	1081.629178	1138.582389	-463.863677	1056.771358	1080.142581	-489.615113	827.809985	1238.986643	-536.295858	803.412058	1212.728445	-126.698541	
482	  4.016667	1054.735205	979.520828	-420.936502	1040.934352	992.599666	-186.557736	882.999338	1008.459522	-368.425865	874.282766	1010.618644	-268.200439	1013.127999	828.538957	-134.984977	1114.787717	704.645530	-166.976365	1077.360805	600.915199	-186.399342	1007.682199	797.361119	-476.134031	1080.002097	704.141964	-450.537161	1015.702681	577.285192	-436.265352	1131.498134	376.198739	-259.860598	1070.794062	331.389960	-197.510763	1061.508436	208.662531	-264.556001	953.138719	379.425798	-380.630636	846.930649	381.968936	-427.893080	767.667213	319.714748	-366.075482	902.417451	 87.774016	-280.891094	1114.999579	 75.415526	-305.509758	1101.620505	 46.812095	-198.353217	616.114283	384.761971	-356.610500	660.566344	184.848003	-321.446263	626.030962	182.215824	-424.921226	1020.674842	1468.964991	-477.014842	1008.483713	1442.610919	-111.601246	1086.567345	1409.196191	-268.565934	975.744298	1495.434425	-303.415450	969.060117	1364.118370	-64.299210	954.849654	1275.609395	-84.225429	871.102969	1292.162998	-71.162684	818.631156	1194.452882	-57.189886	981.520420	1403.157013	-532.570142	909.638276	1367.545580	-513.312139	951.208594	1304.517283	-558.601904	860.179854	1231.094823	-596.652976	879.840542	1124.551320	-40.814600	959.417046	957.506056	-68.021740	893.564591	937.401075	-80.012561	934.600379	1195.035384	-581.505828	1073.985291	1121.455725	-468.253447	1045.726345	1064.592739	-494.469423	821.989386	1234.336487	-532.560191	808.035252	1199.018827	-122.686086	
